<svg width="986" height="117" viewBox="0 0 986 117" fill="none" xmlns="http://www.w3.org/2000/svg">
<line y1="61.6123" x2="986" y2="61.6123" stroke="#0A40FF"/>
<ellipse cx="155" cy="60.1123" rx="25" ry="24" fill="#0A40FF" fill-opacity="0.8"/>
<path d="M179.5 60.1123C179.5 73.072 168.55 83.6123 155 83.6123C141.45 83.6123 130.5 73.072 130.5 60.1123C130.5 47.1527 141.45 36.6123 155 36.6123C168.55 36.6123 179.5 47.1527 179.5 60.1123Z" stroke="white" stroke-opacity="0.9"/>
<ellipse cx="495" cy="60.1123" rx="25" ry="24" fill="#0A40FF" fill-opacity="0.8"/>
<path d="M519.5 60.1123C519.5 73.072 508.55 83.6123 495 83.6123C481.45 83.6123 470.5 73.072 470.5 60.1123C470.5 47.1527 481.45 36.6123 495 36.6123C508.55 36.6123 519.5 47.1527 519.5 60.1123Z" stroke="white" stroke-opacity="0.9"/>
<ellipse cx="325" cy="60.1123" rx="25" ry="24" fill="#0A40FF" fill-opacity="0.8"/>
<path d="M349.5 60.1123C349.5 73.072 338.55 83.6123 325 83.6123C311.45 83.6123 300.5 73.072 300.5 60.1123C300.5 47.1527 311.45 36.6123 325 36.6123C338.55 36.6123 349.5 47.1527 349.5 60.1123Z" stroke="white" stroke-opacity="0.9"/>
<ellipse cx="665" cy="60.1123" rx="25" ry="24" fill="#0A40FF" fill-opacity="0.8"/>
<path d="M689.5 60.1123C689.5 73.072 678.55 83.6123 665 83.6123C651.45 83.6123 640.5 73.072 640.5 60.1123C640.5 47.1527 651.45 36.6123 665 36.6123C678.55 36.6123 689.5 47.1527 689.5 60.1123Z" stroke="white" stroke-opacity="0.9"/>
<ellipse cx="850" cy="60.1123" rx="25" ry="24" fill="#0A40FF" fill-opacity="0.8"/>
<path d="M874.5 60.1123C874.5 73.072 863.55 83.6123 850 83.6123C836.45 83.6123 825.5 73.072 825.5 60.1123C825.5 47.1527 836.45 36.6123 850 36.6123C863.55 36.6123 874.5 47.1527 874.5 60.1123Z" stroke="white" stroke-opacity="0.9"/>
<line x1="154.5" y1="36.1123" x2="154.5" y2="4.1123" stroke="#0A40FF"/>
<path d="M325 115.112V83.1123" stroke="#0A40FF"/>
<path d="M495 36.1123V4.1123" stroke="#0A40FF"/>
<path d="M665 116.112V84.1123" stroke="#0A40FF"/>
<path d="M850 32V0" stroke="#0A40FF"/>
</svg>
